<svg width="32" height="32" viewBox="0 0 32 32" fill="none" xmlns="http://www.w3.org/2000/svg">
<path d="M29 19.351H3V27.4368H29V19.351Z" fill="#003045"/>
<path d="M29 0H3V19.0606H29V0Z" fill="#89BAD6"/>
<path d="M13.5849 14.5132L14.9988 15.438V9.07935L18.415 11.2957V8.14695L13.5849 5.00586V14.5132Z" fill="white"/>
<path d="M7.83773 15.1093V11.7313L11.124 9.59141V2.30804L5.30804 6.09111V16.7525L7.83773 15.1093Z" fill="white"/>
<path d="M18.9653 7.78774V13.8865L21.1893 15.3233V3.06464L16.4433 6.14459L18.9653 7.78774Z" fill="white"/>
<path d="M11.6667 2.30804V12.6255L13.0423 11.7313V4.65431V3.20222L11.6667 2.30804Z" fill="white"/>
<path d="M22.8325 8.42206L21.7319 9.14046V14.9717L22.8325 14.2533L26.6843 16.7525V10.8982L22.8325 8.42206Z" fill="white"/>
<path d="M3 27.7272L8.77778 31.4874V27.7272H3Z" fill="#003045"/>
</svg>
